<svg version="1.2" xmlns="http://www.w3.org/2000/svg" viewBox="0 0 1230 300" width="1230" height="300">
	<title>fresh-alt-svg</title>
	<style>
		.s0 { fill: #ffffff } 
		.s1 { fill: #fcc010 } 
		.s2 { fill: #f49619 } 
		.s3 { fill: #ec630e } 
		.s4 { fill: #f39208 } 
	</style>
	<circle id="XMLID_2_" class="s0" cx="1025.2" cy="150.1" r="25.9"/>
	<g id="Layer">
		<path id="XMLID_59_" class="s1" d="m242.6 298.2c-81.9 0-148.2-66.3-148.2-148.2 0-81.9 66.5-148.4 148.4-148.4z"/>
		<path id="XMLID_58_" class="s2" d="m242.8 35.1v40.9 137.7 50.8c-63.5 0-114.9-51.3-114.9-114.9 0-63.2 51.5-114.6 114.9-114.5z"/>
		<path id="XMLID_57_" class="s3" d="m242.8 76.1v137.7l-63.5-54.2c-5.8-5.1-6.2-14-0.8-19.4l64.2-64.2z"/>
	</g>
	<g id="XMLID_60_">
		<path id="CRYPTO            STUDIO" class="s0" aria-label="CRYPTO
           STUDIO"  d="m314.3 50c-9.9 0-16.7 6.8-16.7 16.5v100c0 9.7 6.8 16.5 16.7 16.5h72.2v-33.3h-47.3v-66.3h40.9l6.4-16.9v-16.5zm141.8 33.4v24.9h-16.6v-24.9zm-58.1-33.4v133h41.6v-41.4h8.4l11.2 41.4h40.6v-16.5l-13.1-32.7c6.3-1.7 11-8.8 11-15v-52.3c0-9.7-6.8-16.5-16.5-16.5zm140 96.7v36.3h41.5v-36.3l32.4-80.2v-16.5h-41.4l-10.2 51.7h-3.1l-10-51.7h-41.7v16.5zm125.1-63.2h16.5v24.8h-16.5zm41.4 58.2c9.9 0 16.7-7 16.7-16.7v-58.4c0-9.7-6.8-16.5-16.7-16.5h-83v133h41.6v-41.4zm49.2-58.2v99.6h41.6v-99.6h19.9l6.7-16.9v-16.5h-93.1v33.4zm135.8 0v66.4h-16.5v-66.4zm24.9 99.6c9.9 0 16.7-6.8 16.7-16.5v-100c0-9.7-6.8-16.5-16.7-16.5h-66.3c-9.9 0-16.7 6.8-16.7 16.5v100c0 9.7 6.8 16.5 16.7 16.5zm-467 64.2l25.1 16.6v6.1h-32.9v23.1h50.3c6.8 0 11.5-4.7 11.5-11.5v-21c0-7.4-1.4-11.4-7.8-15.7l-25-16.7v-4.3h28.3l4.5-11.8v-11.4h-50.1c-6.9 0-11.7 4.8-11.7 11.5v19.4c0 7.4 1.5 11.3 7.8 15.7zm75.3-23.4v69.2h28.9v-69.2h13.8l4.7-11.7v-11.5h-64.7v23.2zm94.4-23.2v69.3h-11.5v-69.3h-28.9v80.9c0 6.8 4.7 11.5 11.6 11.5h57.7v-92.4zm68.2 23.2h11.6v46.1h-11.6zm28.9 69.2c6.8 0 11.5-4.8 11.5-11.5v-69.4c0-6.8-4.7-11.5-11.5-11.5h-57.7v92.4zm50.9 0v-92.4h-28.8v92.4zm50.9-69.2v46.1h-11.5v-46.1zm17.3 69.2c6.9 0 11.7-4.8 11.7-11.5v-69.4c0-6.8-4.8-11.5-11.7-11.5h-46c-6.9 0-11.6 4.7-11.6 11.5v69.4c0 6.7 4.7 11.5 11.6 11.5z"/>
	</g>
	<circle id="XMLID_19_" class="s4" cx="1085.1" cy="223.6" r="30.8"/>
	<circle id="XMLID_20_" class="s0" cx="981.5" cy="88.8" r="13"/>
	<circle id="XMLID_2_ copy" class="s4" cx="1049.2" cy="52.1" r="25.9"/>
</svg>